<svg xmlns="http://www.w3.org/2000/svg" viewBox="0 0 260.94 308.93"><defs><style>.cls-1{fill:#fff;}</style></defs><g id="Calque_2" data-name="Calque 2"><g id="Calque_1-2" data-name="Calque 1"><path d="M224.4,155.63c0,2.9,0,5.81,0,8.71-.56,30.28-11.2,56.43-32.38,78.1a109.22,109.22,0,0,1-56.54,30.93,126.77,126.77,0,0,1-35.83,2.76c-7.13-.52-14.26-1.12-21.4-1.32-10.09-.28-19.61,2.3-28.64,6.7-13.06,6.37-24,15.5-33.35,26.5-.23.27-.46.55-.7.81,0,.06-.14.06-.26.11.68-3.31,1.4-6.57,2-9.85,2.89-15.26,4.88-30.61,4.65-46.17-.12-8.69-.79-17.36-3.9-25.57-1.79-4.72-4.15-9.23-6.38-13.77A109.34,109.34,0,0,1,.07,168.22c-1-31.51,9.21-59,30.83-81.91A107.58,107.58,0,0,1,94.26,52.93c35.14-5.39,66.15,4,93,27.26l.54.47c17.88-13.91,36.31-15.66,55.53-2.94,13.73,10.83,19.91,25,16.84,42.21C256.61,139.81,243.81,151.27,224.4,155.63ZM20.34,299.11l1-1.14c9.36-10.86,20.16-19.91,33.12-26.21,7.9-3.86,16.21-6.47,25-6.59a188.21,188.21,0,0,1,20.7.8,111.74,111.74,0,0,0,30.07-.81c23.09-4.08,42.84-14.51,58.8-31.7,18.64-20.07,27.87-44,28.14-71.35,0-3.15-.2-6.29-.31-9.55a39.77,39.77,0,0,0,19.79-74.89,38.74,38.74,0,0,0-23.42-4.33,39.68,39.68,0,0,0-26.58,15c-.86-.82-1.65-1.61-2.48-2.35-27.32-24.44-59-33.28-94.83-25.52-23.42,5.07-42.79,17.35-57.84,36C15.65,116.15,7.93,138.79,8.27,164.11a100.34,100.34,0,0,0,10.28,43.21,75.5,75.5,0,0,1,8,28.75,186.49,186.49,0,0,1-2.06,39.29C23.26,283.32,21.72,291.23,20.34,299.11Z"/><path d="M159.76,30.9A31,31,0,1,1,190.24,62,31.06,31.06,0,0,1,159.76,30.9Zm59.72.3a28.38,28.38,0,1,0-28.35,28.36A28.36,28.36,0,0,0,219.48,31.2Z"/><path class="cls-1" d="M20.34,299.11c1.38-7.88,2.92-15.79,4.12-23.75a186.49,186.49,0,0,0,2.06-39.29,75.5,75.5,0,0,0-8-28.75A100.34,100.34,0,0,1,8.27,164.11c-.34-25.32,7.38-48,23.25-67.65,15.05-18.68,34.42-31,57.84-36,35.84-7.76,67.51,1.08,94.83,25.52.83.74,1.62,1.53,2.48,2.35a39.68,39.68,0,0,1,26.58-15,38.74,38.74,0,0,1,23.42,4.33,39.79,39.79,0,0,1,20.77,40.56,39.89,39.89,0,0,1-40.56,34.33c.11,3.26.34,6.4.31,9.55-.27,27.36-9.5,51.28-28.14,71.35-16,17.19-35.71,27.62-58.8,31.7a111.74,111.74,0,0,1-30.07.81,188.21,188.21,0,0,0-20.7-.8c-8.83.12-17.14,2.73-25,6.59-13,6.3-23.76,15.35-33.12,26.21ZM17.61,134.39l.2.07c.16-.35.33-.7.48-1.06A88.06,88.06,0,0,1,43.47,98.61c22.79-19,49-26.35,78.32-22a92.18,92.18,0,0,1,54.94,28.61c17.08,18.19,25.5,39.87,24.74,64.92A85.16,85.16,0,0,1,191.88,207c-10.48,20.4-26.54,34.81-47.57,43.76a106.27,106.27,0,0,1-22.13,6.49c3.8-.46,7.61-.91,11.35-1.71,23.62-5.05,43.38-16.62,58.31-35.72,16.7-21.38,23.22-45.71,19-72.56a90.52,90.52,0,0,0-28.67-53.6c-22.68-21-49.74-29.56-80.4-26.73A96.22,96.22,0,0,0,65.23,78c-21.53,11.44-36.9,28.42-45.77,51.18C18.78,130.86,18.22,132.63,17.61,134.39Z"/><path class="cls-1" d="M219.48,31.2A28.38,28.38,0,1,1,191.86,2.74,28.39,28.39,0,0,1,219.48,31.2Z"/><path d="M17.61,134.39c.61-1.76,1.17-3.53,1.85-5.26C28.33,106.37,43.7,89.39,65.23,78a96.22,96.22,0,0,1,36.55-11.07c30.66-2.83,57.72,5.74,80.4,26.73a90.52,90.52,0,0,1,28.67,53.6c4.21,26.85-2.31,51.18-19,72.56-14.93,19.1-34.69,30.67-58.31,35.72-3.74.8-7.55,1.25-11.35,1.71a106.27,106.27,0,0,0,22.13-6.49c21-9,37.09-23.36,47.57-43.76a85.16,85.16,0,0,0,9.59-36.77c.76-25.05-7.66-46.73-24.74-64.92a92.18,92.18,0,0,0-54.94-28.61c-29.31-4.39-55.53,3-78.32,22A88.06,88.06,0,0,0,18.29,133.4c-.15.36-.32.71-.48,1.06Z"/></g></g></svg>