<svg xmlns="http://www.w3.org/2000/svg" viewBox="0 0 283.93 221.51"><defs><style>.cls-1{fill:#fff;}.cls-2{fill:#dedede;}</style></defs><g id="Calque_2" data-name="Calque 2"><g id="Calque_1-2" data-name="Calque 1"><path d="M255.23,117.85c0-.11,0-.21,0-.32s0-.08,0-.12v-.21h0c-.25-1.37-.57-2.86-.78-4.36a1.35,1.35,0,0,1,0-.49,1.15,1.15,0,0,1,0-.41,1.34,1.34,0,0,1-.07-.39,1.07,1.07,0,0,1-.07-.19l0-.07c0-.06-.05-.13-.08-.19a.92.92,0,0,1-.1-.32s0,0,0-.07,0,0,0-.08a1.21,1.21,0,0,1-.05-.18.54.54,0,0,1,0-.11,1.43,1.43,0,0,1-.12-.21,1,1,0,0,1-.22-.47,1.36,1.36,0,0,1-.23-.34,27.85,27.85,0,0,0-16.63-16.09,1.58,1.58,0,0,1-.84-1.06,50,50,0,0,0-5.47-17c-13.43-24.9-43.94-32.43-66.66-17.69-.28.18-.59.3-.92.47-3-18.08-16.61-31.19-33.18-33.95A40,40,0,0,0,86.12,49.75c-1.34-.14-2.68-.32-4-.42C66.64,48.15,53.28,53,42.43,64,30.64,76,25.71,90.59,27.62,107.26c2,17.07,10.5,30.15,25.16,39.15a1.81,1.81,0,0,1,1,1.8,35.7,35.7,0,0,0,2.4,13.25c7.29,19.28,28.58,28.51,47.22,20.37a93.25,93.25,0,0,0,8.46-4.75,21.42,21.42,0,0,0,35-5.2,2.8,2.8,0,0,1,.3.15c8.05,5.36,16.29,5.72,24.72,1,.66-.37,1-.08,1.46.26a26.75,26.75,0,0,0,14.47,5.47c10.85.66,19.39-3.61,25.76-12.38a2.12,2.12,0,0,1,1.29-.8,19,19,0,0,0,16.56-16.73c.09-.74.36-.95,1.07-1.1,10.11-2.06,17-8,20.86-17.52A27.65,27.65,0,0,0,255.23,119h0a.88.88,0,0,1,0-.36c0-.1,0-.21,0-.32l0,.27A4.48,4.48,0,0,1,255.23,117.85Zm-9.93,3.72a25.38,25.38,0,0,1-20.63,21.92l-1.12.25a18,18,0,0,1-2.59,7.75,17.2,17.2,0,0,1-12.81,8.11,2.17,2.17,0,0,0-1.33.78c-9.07,12.23-24.89,14.82-37.4,6.13a1.41,1.41,0,0,0-1.21-.12q-11.65,6.27-22.79-.84c-.13-.08-.27-.15-.41-.22a20.24,20.24,0,0,1-32.68,4.51,34.7,34.7,0,0,1-9.25,5.16A33,33,0,0,1,59,148.13,30.68,30.68,0,0,1,58.7,144a1.53,1.53,0,0,0-.91-1.57A46.93,46.93,0,0,1,47.65,68.6c9.94-9.92,22-14.45,36-13.89a30.39,30.39,0,0,1,3.81.41,1.44,1.44,0,0,0,1.86-1,36.11,36.11,0,0,1,19.9-19.73,36.89,36.89,0,0,1,50.33,27.27c.06.31.16.61.21.79,2.81-1.36,5.53-2.9,8.41-4,25.16-9.94,53.7,5.73,58.7,32.3a5.75,5.75,0,0,0,4,4.87A25.14,25.14,0,0,1,245.3,121.57Z"/><path d="M45.77,150.62.13,187.54c0-.39-.09-.64-.09-.9,0-3.27,0-6.55,0-9.83a1.64,1.64,0,0,1,.64-1.2q22.28-12.53,44.59-25c.12-.07.26-.12.38-.18Z"/><path d="M15.6,184.67l31.68-29.44.2.16-4.43,6.3q-8.26,11.69-16.51,23.39a1.88,1.88,0,0,1-2.23.95C21.51,185.48,18.67,185.14,15.6,184.67Z"/><path d="M239.83,79l5.55-4.47q15.35-12.28,30.68-24.58a1.48,1.48,0,0,1,1.81-.28c1.94.92,3.92,1.77,6.06,2.73L240,79.2Z"/><path d="M223.13,211.63,209.58,174l.23-.11L230.13,207Z"/><path d="M187.43,9.11c-12.81,19.82-22.2,34.34-28.44,44a.08.08,0,0,1-.12,0l-4.62-3.43s0-.08-4,4.88l32.87-40.68C187.32,9,187.23,9,187.43,9.11Z"/><path d="M54.11,0l26.8,43.21-.23.16L75.3,36.69Q63.14,21.56,51,6.42c-.58-.71-.68-1.18-.08-1.93C52,3.08,53,1.59,54.11,0Z"/><path d="M278.49,62.31l3.11,6.22L242,84.23,241.9,84Z"/><path d="M61.73,5.43c2.05-.25,3.86-.53,5.69-.66.31,0,.8.53,1,.92q4.59,10.47,9.13,21L82.15,37.3a3.94,3.94,0,0,1,.42,1.64Z"/><path d="M219.33,221.51h-5.44q-3-20.1-6-40.28l.21,0Z"/><path d="M187.13,9.26c-5.32,20.49-9,34.72-11.5,44.27,0,0,0,0,0,0l4.24,1.64s0,0,0,0C181.58,44.8,187.3,9.3,187.13,9.26Z"/><path d="M74.46,43.65l-3.78-3.41q-10.17-9.3-20.37-18.58a1.35,1.35,0,0,1-.42-1.91c.68-1.34,1.21-2.76,1.91-4.37l22.86,28Z"/><path d="M237,197l-3.91,3.14c-6.25-8-12.45-16-18.66-23.91l.17-.15Z"/><path d="M258.6,55.4,237.54,75.73l-.14-.1c.11-.19.21-.39.33-.57,4.15-6,8.32-12,12.45-18a2,2,0,0,1,1.64-1C254,55.91,256.1,55.65,258.6,55.4Z"/><path d="M38.43,149.41,0,167.46a16.93,16.93,0,0,1,.05-2.8c.06-.37.57-.79,1-.95q12.42-4.87,24.87-9.67c4-1.55,7.95-3.08,11.93-4.62l.52-.19Z"/><path class="cls-1" d="M145,165.33a20.24,20.24,0,0,1-32.68,4.51,34.7,34.7,0,0,1-9.25,5.16A33,33,0,0,1,59,148.13,30.68,30.68,0,0,1,58.7,144a1.53,1.53,0,0,0-.91-1.57A46.93,46.93,0,0,1,47.65,68.6c9.94-9.92,22-14.45,36-13.89a30.39,30.39,0,0,1,3.81.41,1.44,1.44,0,0,0,1.86-1,36.11,36.11,0,0,1,19.9-19.73,36.89,36.89,0,0,1,50.33,27.27c.06.31.16.61.21.79,2.81-1.36,5.53-2.9,8.41-4,25.16-9.94,53.7,5.73,58.7,32.3a5.75,5.75,0,0,0,4,4.87,25.35,25.35,0,0,1-6.13,47.94l-1.12.25a18,18,0,0,1-2.59,7.75,17.2,17.2,0,0,1-12.81,8.11,2.17,2.17,0,0,0-1.33.78c-9.07,12.23-24.89,14.82-37.4,6.13a1.41,1.41,0,0,0-1.21-.12q-11.65,6.27-22.79-.84C145.29,165.47,145.15,165.4,145,165.33ZM74.29,94.74c-10.69,6-20.23,22.28-15,40.12a35.34,35.34,0,0,0,13,18.64c7.23,5.45,16.73,7.48,21.41,6.85C79.49,158.23,68,149.2,63.48,135.89,58,119.81,62.38,106.1,74.29,94.74Zm140.19,9.48c5.59-9.61,5.1-24.59-5.34-34.64-10.72-10.32-25.7-9.65-34.24-4.33,12-4.07,23.12-2.38,32.32,6.66S218.36,92,214.48,104.22ZM73.83,84.39c-1.72,4.51,1.73,12.77,10.25,12.9C77.43,95.37,74.13,91.06,73.83,84.39Z"/><path d="M74.29,94.74C62.38,106.1,58,119.81,63.48,135.89c4.5,13.31,16,22.34,30.25,24.46-4.68.63-14.18-1.4-21.41-6.85a35.34,35.34,0,0,1-13-18.64C54.06,117,63.6,100.71,74.29,94.74Z"/><path d="M209.48,104.22c3.88-12.24,1.94-23.28-7.26-32.31S182,61.18,169.9,65.25c8.54-5.32,23.52-6,34.24,4.33C214.58,79.63,215.07,94.61,209.48,104.22Z"/><path d="M73.83,84.39c.3,6.67,3.6,11,10.25,12.9C75.56,97.16,72.11,88.9,73.83,84.39Z"/><path class="cls-2" d="M246.87,117a3.82,3.82,0,0,1-.05-.68c0-.1,0-.2,0-.3s0-.08,0-.11v-.2h0c-.24-1.29-.53-2.68-.74-4.08a1.86,1.86,0,0,1,0-.47,1,1,0,0,1,0-.38,1.13,1.13,0,0,1-.06-.36,1.34,1.34,0,0,1-.07-.18.43.43,0,0,1,0-.07l-.08-.18a.75.75,0,0,1-.09-.29.43.43,0,0,1,0-.07s0,0,0-.08a.48.48,0,0,1-.05-.17.41.41,0,0,1-.05-.09.84.84,0,0,1-.11-.21,1,1,0,0,1-.21-.44,1.31,1.31,0,0,1-.22-.32,26.09,26.09,0,0,0-15.58-15.07,1.52,1.52,0,0,1-.79-1,46.69,46.69,0,0,0-5.12-15.94c-1.65-3-5.72-4.13-11.51-3.73l-.12.32a39.89,39.89,0,0,1,8.38,18,5.4,5.4,0,0,0,3.7,4.57,23.76,23.76,0,0,1-5.74,44.92c-.33.06-.65.14-1.05.23a16.79,16.79,0,0,1-2.43,7.26,16.08,16.08,0,0,1-12,7.59,2.08,2.08,0,0,0-1.25.74c-8.49,11.46-23.32,13.89-35,5.74a1.35,1.35,0,0,0-1.14-.11c-7.28,3.92-14.39,3.68-21.35-.79-.12-.08-.25-.13-.38-.2A19,19,0,0,1,112.92,165a32.7,32.7,0,0,1-8.66,4.83,31,31,0,0,1-41.32-25.18c-.12-1-.2-1.92-.23-2.88-3,1.81-4.66,2.88-4.66,3a33.51,33.51,0,0,0,2.25,12.41c6.83,18.06,26.79,26.71,44.25,19.09a87.57,87.57,0,0,0,7.92-4.45,20.08,20.08,0,0,0,32.82-4.88,1.84,1.84,0,0,1,.28.15c7.54,5,15.27,5.36,23.16.9.62-.35.94-.08,1.37.24a25.16,25.16,0,0,0,13.56,5.12c10.17.63,18.17-3.38,24.14-11.6A1.94,1.94,0,0,1,209,161a17.77,17.77,0,0,0,15.51-15.68c.08-.7.34-.89,1-1,9.47-1.94,15.94-7.5,19.54-16.42a25.9,25.9,0,0,0,1.75-10.49h0a.79.79,0,0,1,0-.34c0-.1,0-.2,0-.3Z"/></g></g></svg>